<svg xmlns="http://www.w3.org/2000/svg" viewBox="0 0 40 40" fill="none">
  <rect width="40" height="40" rx="8" fill="#00008F"/>
  <!-- A -->
  <path d="M10 28L14.5 12h2l4.5 16h-2.2l-1-4h-4.6l-1 4H10zm3.5-6h3.6L15.3 15.5h-.1L13.5 22z" fill="white"/>
  <!-- X -->
  <path d="M21 12h2.3l2.7 6.5L28.7 12H31l-3.8 8.5L31 28h-2.3l-2.7-6.5L23.3 28H21l3.8-7.5L21 12z" fill="white"/>
  <!-- Red/white diagonal stripe -->
  <path d="M9 10L15 4" stroke="#FF1721" stroke-width="2.5" stroke-linecap="round"/>
  <path d="M9.5 8.5L14 5.5" stroke="white" stroke-width="1" stroke-linecap="round"/>
  <!-- A small -->
  <path d="M32 28l2-5h1l2 5h-1l-.5-1.5h-2L33 28h-1zm1.7-2.3h1.4l-.7-2-.7 2z" fill="white"/>
</svg>
